<mxfile host="app.diagrams.net" modified="2024-03-25T17:26:46.330Z" agent="Mozilla/5.0 (Windows NT 10.0; Win64; x64) AppleWebKit/537.36 (KHTML, like Gecko) Chrome/122.0.0.0 Safari/537.36" etag="vHwrpolZ7DxaDsOWiF7n" version="21.1.2" type="device">
  <diagram name="Page-1" id="GHCCZwFHGZ2dIF8Eq7Bc">
    <mxGraphModel dx="1480" dy="778" grid="1" gridSize="10" guides="1" tooltips="1" connect="1" arrows="1" fold="1" page="1" pageScale="1" pageWidth="850" pageHeight="1100" math="0" shadow="0">
      <root>
        <mxCell id="0" />
        <mxCell id="1" parent="0" />
        <mxCell id="qtLm0A7_fBKDtyC4aUwC-1" value="User" style="swimlane;whiteSpace=wrap;html=1;" parent="1" vertex="1">
          <mxGeometry x="120" y="80" width="180" height="760" as="geometry" />
        </mxCell>
        <mxCell id="qtLm0A7_fBKDtyC4aUwC-4" value="" style="ellipse;whiteSpace=wrap;html=1;aspect=fixed;" parent="qtLm0A7_fBKDtyC4aUwC-1" vertex="1">
          <mxGeometry x="10" y="67.5" width="25" height="25" as="geometry" />
        </mxCell>
        <mxCell id="qtLm0A7_fBKDtyC4aUwC-6" value="Input booking confirmation number, licence and credit" style="rounded=1;whiteSpace=wrap;html=1;" parent="qtLm0A7_fBKDtyC4aUwC-1" vertex="1">
          <mxGeometry x="60" y="45" width="110" height="70" as="geometry" />
        </mxCell>
        <mxCell id="qtLm0A7_fBKDtyC4aUwC-8" value="" style="endArrow=classic;html=1;rounded=0;exitX=1;exitY=0.5;exitDx=0;exitDy=0;entryX=0;entryY=0.5;entryDx=0;entryDy=0;" parent="qtLm0A7_fBKDtyC4aUwC-1" source="qtLm0A7_fBKDtyC4aUwC-4" target="qtLm0A7_fBKDtyC4aUwC-6" edge="1">
          <mxGeometry width="50" height="50" relative="1" as="geometry">
            <mxPoint x="280" y="260" as="sourcePoint" />
            <mxPoint x="330" y="210" as="targetPoint" />
          </mxGeometry>
        </mxCell>
        <mxCell id="wLLJhmLu08JExm7nZ9xd-14" value="Report Issue" style="rounded=1;whiteSpace=wrap;html=1;" vertex="1" parent="qtLm0A7_fBKDtyC4aUwC-1">
          <mxGeometry x="60" y="225" width="57.5" height="40" as="geometry" />
        </mxCell>
        <mxCell id="wLLJhmLu08JExm7nZ9xd-19" value="Sign Rental Agreement" style="rounded=1;whiteSpace=wrap;html=1;" vertex="1" parent="qtLm0A7_fBKDtyC4aUwC-1">
          <mxGeometry x="60" y="380" width="78.75" height="40" as="geometry" />
        </mxCell>
        <mxCell id="qtLm0A7_fBKDtyC4aUwC-2" value="Car Rental Website" style="swimlane;whiteSpace=wrap;html=1;" parent="1" vertex="1">
          <mxGeometry x="300" y="80" width="300" height="760" as="geometry" />
        </mxCell>
        <mxCell id="wLLJhmLu08JExm7nZ9xd-3" style="edgeStyle=orthogonalEdgeStyle;rounded=0;orthogonalLoop=1;jettySize=auto;html=1;exitX=0.5;exitY=1;exitDx=0;exitDy=0;entryX=0.5;entryY=0;entryDx=0;entryDy=0;" edge="1" parent="qtLm0A7_fBKDtyC4aUwC-2" source="qtLm0A7_fBKDtyC4aUwC-7" target="wLLJhmLu08JExm7nZ9xd-2">
          <mxGeometry relative="1" as="geometry" />
        </mxCell>
        <mxCell id="qtLm0A7_fBKDtyC4aUwC-7" value="Forms asking for license, credit, and confirmation number" style="rounded=1;whiteSpace=wrap;html=1;" parent="qtLm0A7_fBKDtyC4aUwC-2" vertex="1">
          <mxGeometry x="45" y="51.25" width="195" height="57.5" as="geometry" />
        </mxCell>
        <mxCell id="wLLJhmLu08JExm7nZ9xd-4" style="edgeStyle=orthogonalEdgeStyle;rounded=0;orthogonalLoop=1;jettySize=auto;html=1;exitX=0;exitY=0.5;exitDx=0;exitDy=0;entryX=0;entryY=0.5;entryDx=0;entryDy=0;" edge="1" parent="qtLm0A7_fBKDtyC4aUwC-2" source="wLLJhmLu08JExm7nZ9xd-2" target="qtLm0A7_fBKDtyC4aUwC-7">
          <mxGeometry relative="1" as="geometry" />
        </mxCell>
        <mxCell id="wLLJhmLu08JExm7nZ9xd-2" value="" style="rhombus;whiteSpace=wrap;html=1;" vertex="1" parent="qtLm0A7_fBKDtyC4aUwC-2">
          <mxGeometry x="127.5" y="140" width="30" height="30" as="geometry" />
        </mxCell>
        <mxCell id="wLLJhmLu08JExm7nZ9xd-5" value="Invalid, no reservation that match" style="text;html=1;strokeColor=none;fillColor=none;align=center;verticalAlign=middle;whiteSpace=wrap;rounded=0;" vertex="1" parent="qtLm0A7_fBKDtyC4aUwC-2">
          <mxGeometry x="5" y="160" width="120" height="30" as="geometry" />
        </mxCell>
        <mxCell id="wLLJhmLu08JExm7nZ9xd-12" value="" style="rhombus;whiteSpace=wrap;html=1;" vertex="1" parent="qtLm0A7_fBKDtyC4aUwC-2">
          <mxGeometry x="127.5" y="230" width="30" height="30" as="geometry" />
        </mxCell>
        <mxCell id="wLLJhmLu08JExm7nZ9xd-13" value="Form" style="rounded=1;whiteSpace=wrap;html=1;" vertex="1" parent="qtLm0A7_fBKDtyC4aUwC-2">
          <mxGeometry x="30" y="280" width="55" height="30" as="geometry" />
        </mxCell>
        <mxCell id="wLLJhmLu08JExm7nZ9xd-21" value="Form" style="rounded=1;whiteSpace=wrap;html=1;" vertex="1" parent="qtLm0A7_fBKDtyC4aUwC-2">
          <mxGeometry x="85" y="385" width="55" height="30" as="geometry" />
        </mxCell>
        <mxCell id="wLLJhmLu08JExm7nZ9xd-31" style="edgeStyle=orthogonalEdgeStyle;rounded=0;orthogonalLoop=1;jettySize=auto;html=1;exitX=0.5;exitY=1;exitDx=0;exitDy=0;entryX=0.5;entryY=0;entryDx=0;entryDy=0;" edge="1" parent="qtLm0A7_fBKDtyC4aUwC-2" source="wLLJhmLu08JExm7nZ9xd-27" target="wLLJhmLu08JExm7nZ9xd-30">
          <mxGeometry relative="1" as="geometry" />
        </mxCell>
        <mxCell id="wLLJhmLu08JExm7nZ9xd-27" value="Show billing" style="rounded=1;whiteSpace=wrap;html=1;" vertex="1" parent="qtLm0A7_fBKDtyC4aUwC-2">
          <mxGeometry x="72.5" y="490" width="80" height="40" as="geometry" />
        </mxCell>
        <mxCell id="wLLJhmLu08JExm7nZ9xd-30" value="" style="ellipse;whiteSpace=wrap;html=1;aspect=fixed;" vertex="1" parent="qtLm0A7_fBKDtyC4aUwC-2">
          <mxGeometry x="100" y="560" width="25" height="25" as="geometry" />
        </mxCell>
        <mxCell id="wLLJhmLu08JExm7nZ9xd-32" value="" style="ellipse;whiteSpace=wrap;html=1;aspect=fixed;" vertex="1" parent="qtLm0A7_fBKDtyC4aUwC-2">
          <mxGeometry x="103.75" y="563.75" width="17.5" height="17.5" as="geometry" />
        </mxCell>
        <mxCell id="qtLm0A7_fBKDtyC4aUwC-3" value="Database" style="swimlane;whiteSpace=wrap;html=1;" parent="1" vertex="1">
          <mxGeometry x="600" y="80" width="180" height="760" as="geometry" />
        </mxCell>
        <mxCell id="DOATOJcdpVP5VAB-xwLo-89" value="Verify in database" style="rounded=1;whiteSpace=wrap;html=1;" parent="qtLm0A7_fBKDtyC4aUwC-3" vertex="1">
          <mxGeometry x="40" y="135" width="120" height="40" as="geometry" />
        </mxCell>
        <mxCell id="wLLJhmLu08JExm7nZ9xd-17" value="Send to database" style="rounded=1;whiteSpace=wrap;html=1;" vertex="1" parent="qtLm0A7_fBKDtyC4aUwC-3">
          <mxGeometry x="66.25" y="275" width="67.5" height="40" as="geometry" />
        </mxCell>
        <mxCell id="wLLJhmLu08JExm7nZ9xd-26" style="edgeStyle=orthogonalEdgeStyle;rounded=0;orthogonalLoop=1;jettySize=auto;html=1;exitX=0.5;exitY=1;exitDx=0;exitDy=0;entryX=0.5;entryY=0;entryDx=0;entryDy=0;" edge="1" parent="qtLm0A7_fBKDtyC4aUwC-3" source="wLLJhmLu08JExm7nZ9xd-23" target="wLLJhmLu08JExm7nZ9xd-25">
          <mxGeometry relative="1" as="geometry" />
        </mxCell>
        <mxCell id="wLLJhmLu08JExm7nZ9xd-23" value="Mark as rented" style="rounded=1;whiteSpace=wrap;html=1;" vertex="1" parent="qtLm0A7_fBKDtyC4aUwC-3">
          <mxGeometry x="66.25" y="380" width="67.5" height="40" as="geometry" />
        </mxCell>
        <mxCell id="wLLJhmLu08JExm7nZ9xd-25" value="-500 credit card" style="rounded=1;whiteSpace=wrap;html=1;" vertex="1" parent="qtLm0A7_fBKDtyC4aUwC-3">
          <mxGeometry x="66.25" y="490" width="67.5" height="40" as="geometry" />
        </mxCell>
        <mxCell id="qtLm0A7_fBKDtyC4aUwC-9" value="" style="endArrow=classic;html=1;rounded=0;exitX=1;exitY=0.5;exitDx=0;exitDy=0;entryX=0;entryY=0.5;entryDx=0;entryDy=0;" parent="1" source="qtLm0A7_fBKDtyC4aUwC-6" target="qtLm0A7_fBKDtyC4aUwC-7" edge="1">
          <mxGeometry width="50" height="50" relative="1" as="geometry">
            <mxPoint x="165" y="170" as="sourcePoint" />
            <mxPoint x="190" y="170" as="targetPoint" />
          </mxGeometry>
        </mxCell>
        <mxCell id="wLLJhmLu08JExm7nZ9xd-8" style="edgeStyle=orthogonalEdgeStyle;rounded=0;orthogonalLoop=1;jettySize=auto;html=1;exitX=1;exitY=0.5;exitDx=0;exitDy=0;entryX=0;entryY=0.5;entryDx=0;entryDy=0;" edge="1" parent="1" source="wLLJhmLu08JExm7nZ9xd-2" target="DOATOJcdpVP5VAB-xwLo-89">
          <mxGeometry relative="1" as="geometry" />
        </mxCell>
        <mxCell id="wLLJhmLu08JExm7nZ9xd-9" style="edgeStyle=orthogonalEdgeStyle;rounded=0;orthogonalLoop=1;jettySize=auto;html=1;exitX=0.5;exitY=1;exitDx=0;exitDy=0;entryX=0.5;entryY=0;entryDx=0;entryDy=0;" edge="1" parent="1" source="DOATOJcdpVP5VAB-xwLo-89">
          <mxGeometry relative="1" as="geometry">
            <mxPoint x="442.5" y="310" as="targetPoint" />
          </mxGeometry>
        </mxCell>
        <mxCell id="wLLJhmLu08JExm7nZ9xd-10" value="Valid, matching reservation" style="text;html=1;strokeColor=none;fillColor=none;align=center;verticalAlign=middle;whiteSpace=wrap;rounded=0;" vertex="1" parent="1">
          <mxGeometry x="481" y="287" width="120" height="30" as="geometry" />
        </mxCell>
        <mxCell id="wLLJhmLu08JExm7nZ9xd-15" style="edgeStyle=orthogonalEdgeStyle;rounded=0;orthogonalLoop=1;jettySize=auto;html=1;exitX=0;exitY=0.5;exitDx=0;exitDy=0;entryX=1;entryY=0.5;entryDx=0;entryDy=0;" edge="1" parent="1" source="wLLJhmLu08JExm7nZ9xd-12" target="wLLJhmLu08JExm7nZ9xd-14">
          <mxGeometry relative="1" as="geometry" />
        </mxCell>
        <mxCell id="wLLJhmLu08JExm7nZ9xd-16" style="edgeStyle=orthogonalEdgeStyle;rounded=0;orthogonalLoop=1;jettySize=auto;html=1;exitX=0.5;exitY=1;exitDx=0;exitDy=0;entryX=0;entryY=0.5;entryDx=0;entryDy=0;" edge="1" parent="1" source="wLLJhmLu08JExm7nZ9xd-14" target="wLLJhmLu08JExm7nZ9xd-13">
          <mxGeometry relative="1" as="geometry" />
        </mxCell>
        <mxCell id="wLLJhmLu08JExm7nZ9xd-18" style="edgeStyle=orthogonalEdgeStyle;rounded=0;orthogonalLoop=1;jettySize=auto;html=1;exitX=1;exitY=0.5;exitDx=0;exitDy=0;entryX=0;entryY=0.5;entryDx=0;entryDy=0;" edge="1" parent="1" source="wLLJhmLu08JExm7nZ9xd-13" target="wLLJhmLu08JExm7nZ9xd-17">
          <mxGeometry relative="1" as="geometry" />
        </mxCell>
        <mxCell id="wLLJhmLu08JExm7nZ9xd-20" style="edgeStyle=orthogonalEdgeStyle;rounded=0;orthogonalLoop=1;jettySize=auto;html=1;exitX=0.5;exitY=1;exitDx=0;exitDy=0;" edge="1" parent="1" source="wLLJhmLu08JExm7nZ9xd-12" target="wLLJhmLu08JExm7nZ9xd-19">
          <mxGeometry relative="1" as="geometry" />
        </mxCell>
        <mxCell id="wLLJhmLu08JExm7nZ9xd-22" style="edgeStyle=orthogonalEdgeStyle;rounded=0;orthogonalLoop=1;jettySize=auto;html=1;exitX=1;exitY=0.5;exitDx=0;exitDy=0;" edge="1" parent="1" source="wLLJhmLu08JExm7nZ9xd-19" target="wLLJhmLu08JExm7nZ9xd-21">
          <mxGeometry relative="1" as="geometry" />
        </mxCell>
        <mxCell id="wLLJhmLu08JExm7nZ9xd-24" style="edgeStyle=orthogonalEdgeStyle;rounded=0;orthogonalLoop=1;jettySize=auto;html=1;exitX=1;exitY=0.5;exitDx=0;exitDy=0;entryX=0;entryY=0.5;entryDx=0;entryDy=0;" edge="1" parent="1" source="wLLJhmLu08JExm7nZ9xd-21" target="wLLJhmLu08JExm7nZ9xd-23">
          <mxGeometry relative="1" as="geometry" />
        </mxCell>
        <mxCell id="wLLJhmLu08JExm7nZ9xd-28" style="edgeStyle=orthogonalEdgeStyle;rounded=0;orthogonalLoop=1;jettySize=auto;html=1;exitX=0;exitY=0.5;exitDx=0;exitDy=0;entryX=1;entryY=0.5;entryDx=0;entryDy=0;" edge="1" parent="1" source="wLLJhmLu08JExm7nZ9xd-25" target="wLLJhmLu08JExm7nZ9xd-27">
          <mxGeometry relative="1" as="geometry" />
        </mxCell>
      </root>
    </mxGraphModel>
  </diagram>
</mxfile>
